<svg viewBox="0 0 1024 1024" xmlns="http://www.w3.org/2000/svg">
	<title>Arrow icon</title>
	<path d="m866.38 531.26c-39.384-126.71-164.38-213.19-314.21-215.75v-148.12c0-6.8493-5.9932-12.843-12.843-12.843-2.5685 0-5.137 0.85617-7.7055 2.5685l-380.99 275.69c-5.9932 4.2808-6.8493 11.986-2.5685 17.98 0.85617 0.85617 1.7123 1.7123 2.5685 2.5685l380.99 273.97c5.9932 4.2808 13.699 2.5685 17.98-2.5685 1.7123-2.5685 2.5685-5.137 2.5685-7.7055v-147.26c92.466 0 170.38 43.665 197.77 109.59 23.117 56.507 4.2808 117.29-50.514 167.81-5.137 5.137-5.9932 12.843-0.85617 17.98 2.5685 2.5685 5.9932 4.2808 9.4178 4.2808h10.274c2.5685 0 5.137-0.85617 6.8493-2.5685 125.86-83.048 179.8-212.33 141.27-335.62z"/>
</svg>
