<svg viewBox="0 0 1024 1024" xmlns="http://www.w3.org/2000/svg">
	<title>Download icon</title>
	<g>
		<path d="m805.89 658.16c-28.143 0-50.964 22.815-50.964 50.957v79.428h-485.86v-79.428c0-28.141-22.815-50.957-50.957-50.957-28.143 0-50.957 22.815-50.957 50.957v130.39c0 28.141 22.815 50.964 50.957 50.964h587.79c28.141 0 50.957-22.822 50.957-50.964v-130.39c0-28.143-22.816-50.957-50.959-50.957z"/>
		<path d="m496.62 712.38c8.4883 8.4822 22.277 8.4822 30.757 0l178.58-178.58c5.2032-5.2032 6.7488-13.019 3.9352-19.836-2.8137-6.79-9.4298-11.217-16.803-11.217h-83.852v-329.45c0-21.975-17.793-39.768-39.764-39.768h-114.93c-21.969 0-39.764 17.791-39.764 39.768v329.45h-83.881c-7.3653 0-13.981 4.425-16.795 11.217-2.8137 6.8175-1.2665 14.633 3.9291 19.836z"/>
	</g>
</svg>
