<svg xmlns="http://www.w3.org/2000/svg" viewBox="0 0 1024 1024">
	<title>Envelope icon</title>
	<g>
		<path d="m928.36 274.68c0-0.9529 0.65579-1.8804 0.61231-2.8224l-254.49 245.22 254.19 237.38c0.14855-1.6956-0.30797-3.4058-0.30797-5.1377z"/>
		<path d="m635.63 554.81-103.89 99.956c-5.2572 5.0579-12.047 7.5942-18.84 7.5942-6.6521 0-13.304-2.4275-18.525-7.2934l-103.61-96.547-255.85 246.61c6.221 2.2355 12.898 3.971 19.891 3.971h716.18c10.384 0 20.123-3.163 28.59-7.8804z"/>
		<path d="m512.6 597.77 388.39-374.13c-8.7934-5.2282-19.029-8.7355-30-8.7355h-716.18c-14.286 0-27.377 5.5471-37.572 14.007z"/>
		<path d="m95.028 283.79v465.52c0 5.3442 1.2283 10.496 2.5616 15.42l252.67-243.32z"/>
	</g>
</svg>
