<svg viewBox="0 0 1024 1024" xmlns="http://www.w3.org/2000/svg">
	<title>Key icon</title>
	<path d="m862.97 749.73c-0.34763-4.5294-2.3721-8.8851-5.6925-12.134l-286.91-286.91c11.288-26.591 17.246-55.389 17.246-85.15 0-58.162-22.686-112.89-63.745-154.05-41.118-41.079-95.803-63.742-154-63.742-58.223 0-112.81 22.67-154 63.775-84.973 84.927-84.991 223.06-0.0128 307.98 41.182 41.192 95.791 63.878 153.98 63.878 29.769 0 58.494-6.0069 85.15-17.31l94.254 94.326c3.9211 3.8725 9.0921 5.9276 14.672 5.7462l51.365-1.8021-1.6768 51.493c-0.15848 5.4318 1.8021 10.718 5.7385 14.585 3.7933 3.8648 9.1228 5.966 14.532 5.7462l51.554-1.7612-1.8506 51.437c-0.16104 5.4369 1.9273 10.733 5.7206 14.601 3.9211 3.8649 8.4889 5.943 14.672 5.7538l51.427-1.7484-1.7228 51.445c-0.30162 5.7053 2.1011 11.193 6.1807 15.089 3.7626 3.4226 8.4582 5.2656 13.407 5.2656 0.7106 0 1.4391-0.0307 2.165-0.0946l78.859-8.7573c10.656-1.163 18.417-10.672 17.502-21.351zm-519.4-410.49c-24.222 24.196-63.382 24.196-87.552 0-24.206-24.204-24.206-63.356 0-87.537 24.171-24.181 63.318-24.204 87.552-8e-3 24.173 24.178 24.158 63.356 0 87.545zm452.09 417.06c-2.8782 2.8782-6.7354 4.3147-10.483 4.3147s-7.607-1.4391-10.483-4.3147l-244.11-244.18c6.7967-7.3284 12.977-15.043 18.591-23.153l246.48 246.44c5.7564 5.7564 5.7564 15.148 3e-3 20.901z" />
</svg>
