<svg viewBox="0 0 1024 1024" xmlns="http://www.w3.org/2000/svg">
	<title>Languages icon</title>
	<desc>A chat bubble with a globe symbol inside it.</desc>
	<g>
	<path d="m523.21 316.38c-22.284 34.314-58.713 98.99-65.905 164.34h131.42c-7.1309-65.491-43.338-130.06-65.519-164.34z" />
	<path d="m321.29 480.73h91.385c6.3035-68.879 40.07-135.06 65.165-175.84-83.217 19.058-147.12 89.387-156.55 175.84z" />
	<path d="m568.48 304.84c24.962 40.78 58.58 106.98 64.854 175.88h91.843c-9.4405-86.516-73.406-156.87-156.7-175.88z" />
	<path d="m457.31 525.12c7.162 65.475 43.576 130.08 65.86 164.33 22.165-34.314 58.402-98.99 65.55-164.33z" />
	<path d="m412.68 525.12h-91.385c9.4404 86.442 73.333 156.78 156.55 175.84-25.094-40.78-58.86-106.97-65.164-175.84z" />
	<path d="m770.25 253.78c-66.956-66.954-155.97-103.83-250.67-103.83-94.685 0-183.7 36.874-250.66 103.83-57.248 57.234-93.426 133.01-101.87 213.36-7.9455 75.596 8.7743 152.36 47.127 217.39l-64.218 189.53 189.53-64.233c65.031 38.369 141.78 55.073 217.38 47.127 80.361-8.449 156.14-44.627 213.39-101.86 66.954-66.954 103.83-155.98 103.83-250.67 0-94.687-36.874-183.7-103.83-250.66zm-247.01 496.7c-136.5 0-247.54-111.05-247.54-247.54 0-136.5 111.05-247.54 247.54-247.54s247.54 111.05 247.54 247.54c0 136.5-111.05 247.54-247.54 247.54z" />
	<path d="m633.34 525.12c-6.2738 68.893-39.892 135.11-64.854 175.87 83.291-19.014 147.26-89.372 156.7-175.87z" />
	</g>
</svg>
