<svg viewBox="0 0 1024 1024" xmlns="http://www.w3.org/2000/svg">
	<title>Linkedin's icon</title>
	<g>
		<path d="m873.87 874.05v-0.0302h0.18102v-265.56c0-129.92-27.968-229.99-179.85-229.99-73.013 0-122.01 40.067-142.01 78.052h-2.112v-65.923h-144.01v483.43h149.95v-239.38c0-63.027 11.948-123.97 90-123.97 76.905 0 78.052 71.927 78.052 128.01v235.36z"/>
		<path d="m161.9 390.62h150.13v483.43h-150.13z"/>
		<path d="m236.9 149.95c-48.002 0-86.952 38.951-86.952 86.952 0 48.002 38.951 87.767 86.952 87.767 48.002 0 86.952-39.765 86.952-87.767-0.03017-48.002-38.981-86.952-86.952-86.952z"/>
	</g>
</svg>
