<svg viewBox="0 0 1024 1024" xmlns="http://www.w3.org/2000/svg">
	<title>Mortarboard icon</title>
	<g>
		<path d="m889.81 315.93-370.15-130.6c-4.9594-1.7509-10.37-1.7509-15.33 0l-370.15 130.6c-9.2031 3.2469-15.362 11.94-15.374 21.699-0.0123 9.7591 6.1267 18.466 15.322 21.735l370.15 131.59c2.4958 0.88775 5.1069 1.3316 7.7164 1.3316 2.611 0 5.2205-0.44387 7.7164-1.3316l370.15-131.59c9.1954-3.2684 15.333-11.975 15.322-21.735-0.0123-9.7591-6.1712-18.452-15.373-21.699z" />
		<path d="m849.84 623.45v-200.96l-46.077 16.38v184.58c-13.878 7.9882-23.23 22.956-23.23 40.119 0 17.162 9.3521 32.131 23.23 40.119v113.22c0 12.723 10.315 23.038 23.038 23.038 12.723 0 23.038-10.315 23.038-23.038v-113.22c13.878-7.9867 23.23-22.957 23.23-40.119 0-17.164-9.3506-32.133-23.23-40.121z" />
		<path d="m511.99 538.38c-7.9084 0-15.697-1.3439-23.151-3.9933l-208.08-73.977v101.38c0 24.803 25.875 45.779 76.907 62.342 44.481 14.437 99.291 22.389 154.33 22.389s109.85-7.9514 154.33-22.389c51.032-16.563 76.907-37.539 76.907-62.342v-101.38l-208.08 73.977c-7.4553 2.6494-15.244 3.9933-23.152 3.9933z" />
	</g>
</svg>
