<svg viewBox="0 0 1024 1024" xmlns="http://www.w3.org/2000/svg">
	<title>Printer icon</title>
	<g>
		<path d="m747.25 290.18v-33.909c0-58.43-47.537-105.97-105.97-105.97h-259.97c-58.43 0-105.97 47.537-105.97 105.97v33.909z"/>
		<path d="m317.73 601.01v230.3c0 23.409 18.977 42.387 42.387 42.387h302.36c23.41 0 42.387-18.978 42.387-42.387v-230.3zm250.08 180.85h-113.03c-11.704 0-21.193-9.489-21.193-21.193 0-11.704 9.489-21.193 21.193-21.193h113.03c11.704 0 21.193 9.489 21.193 21.193 0 11.704-9.489 21.193-21.193 21.193zm0-90.425h-113.03c-11.704 0-21.193-9.489-21.193-21.193 0-11.704 9.489-21.193 21.193-21.193h113.03c11.704 0 21.193 9.489 21.193 21.193 0 11.704-9.489 21.193-21.193 21.193z"/>
		<path d="m767.03 332.56h-510.05c-58.43 0-105.97 47.537-105.97 105.97v169.55c0 58.43 47.537 105.97 105.97 105.97h18.368v-113.03h-12.716c-11.704 0-21.193-9.489-21.193-21.193 0-11.704 9.489-21.193 21.193-21.193h497.34c11.704 0 21.193 9.489 21.193 21.193 0 11.704-9.489 21.193-21.193 21.193h-12.716v113.03h19.78c58.43 0 105.97-47.537 105.97-105.97v-169.55c0-58.43-47.537-105.97-105.97-105.97zm-436.58 132.81h-67.819c-11.704 0-21.193-9.489-21.193-21.193 0-11.704 9.489-21.193 21.193-21.193h67.819c11.704 0 21.193 9.489 21.193 21.193 0 11.704-9.489 21.193-21.193 21.193z"/>
	</g>
</svg>
