<svg viewBox="0 0 1024 1024" xmlns="http://www.w3.org/2000/svg">
	<title>Puzzle piece icon</title>
	<path d="m855.31 467-85.153-85.153c-35.019-35.019-13.618-71.983 24.543-74.228 62.855-3.891 98.173-70.936 46.842-126.76-55.821-51.182-122.57-16.013-126.46 46.692-2.3945 38.162-39.658 59.712-74.528 24.843l-83.357-83.357c-24.992-24.992-65.548-24.992-90.541 0l-84.405 84.405c-35.019 35.019-72.133 13.319-74.528-24.843-3.891-62.855-71.235-98.622-127.06-47.291-51.481 55.971-15.714 123.31 47.141 127.21 38.162 2.3945 59.862 39.658 24.992 74.677l-84.105 83.956c-24.992 24.992-24.992 65.548 0 90.541l83.357 83.357c35.019 34.869 14.217 71.235-23.945 73.63-62.855 3.891-98.023 70.786-46.692 126.61 55.821 51.331 122.42 16.312 126.31-46.542 2.3945-38.162 38.91-59.113 73.929-24.244l84.105 84.105c25.441 25.441 67.045 25.441 92.486 0.14965l84.255-84.255c33.073-34.57 11.673-70.936-26.04-73.33-62.855-3.891-98.472-71.235-47.141-127.06 55.821-51.331 123.17-15.564 127.06 47.291 2.3945 37.713 38.611 58.964 73.181 25.89l85.752-85.752c24.992-24.992 24.992-65.548 0-90.541z" />
</svg>
