<svg viewBox="0 0 1024 1024" xmlns="http://www.w3.org/2000/svg">
	<title>Scroll icon</title>
	<g>
		<path d="m231.19 149.95c-36.947 0-68.38 23.613-80.028 56.572-2.2954 6.4945-1.2955 13.698 2.6829 19.321 3.9784 5.6233 10.436 8.9652 17.324 8.9652h144.88c0-46.866-37.992-84.858-84.858-84.858z" />
		<path d="m543.89 789.21c-4.8058 33.158-20.824 62.512-43.659 84.858h279.17c39.169 0 73.443-21.346 91.811-53.016 3.8073-6.5652 3.82-14.663 0.0283-21.239-3.7917-6.5737-10.804-10.604-18.393-10.604h-308.95z" />
		<path d="m694.54 149.95h-369.16c14.345 15.907 55.629 51.447 19.766 235.99-23.496 126.74-72.224 257.83-71.084 386.36 2.3166 56.452 48.628 101.77 105.64 101.77 58.486 0 106.07-47.587 106.07-106.07 0-11.726 9.4885-21.214 21.214-21.214h209.2c3.1496-76.55 22.541-153.51 41.351-228.18 21.47-85.255 43.072-174.27 43.072-262.58 0-58.486-47.588-106.07-106.07-106.07zm-42.658 466.72h-268.36c-11.716 0-21.214-9.4984-21.214-21.214s9.4984-21.214 21.214-21.214h268.36c11.716 0 21.214 9.4984 21.214 21.214s-9.497 21.214-21.214 21.214zm20.169-84.858h-267.81c-11.716 0-21.214-9.4984-21.214-21.214s9.4984-21.214 21.214-21.214h267.81c11.716 0 21.214 9.4984 21.214 21.214s-9.497 21.214-21.213 21.214zm20.729-84.858h-268.97c-11.716 0-21.214-9.4984-21.214-21.214s9.4984-21.214 21.214-21.214h268.97c11.716 0 21.214 9.4984 21.214 21.214s-9.497 21.214-21.214 21.214zm16.184-84.858h-270.47c-11.716 0-21.214-9.4984-21.214-21.214s9.4984-21.214 21.214-21.214h270.48c11.716 0 21.214 9.4984 21.214 21.214s-9.4999 21.214-21.216 21.214z" />
	</g>
</svg>
