<svg viewBox="0 0 1024 1024" xmlns="http://www.w3.org/2000/svg">
	<title>Signal's icon</title>
	<path d="m425.11 160.53 8.1461 32.921a327.2 327.18 0 0 0-90.965 37.616l-17.424-29.075a360.69 360.66 0 0 1 100.24-41.463zm173.78 0-8.1461 32.921a327.2 327.18 0 0 1 90.965 37.616l17.537-29.075a360.69 360.66 0 0 0-100.36-41.463zm-396.9 164.32a360.69 360.66 0 0 0-41.466 100.23l32.924 8.1455a327.2 327.18 0 0 1 37.619-90.958zm-18.103 187.12a327.54 327.52 0 0 1 3.677-49.156l-33.546-5.0909a363.35 363.32 0 0 0 0 108.49l33.546-5.091a327.54 327.52 0 0 1-3.677-49.156zm515.24 309.98-17.423-29.075a327.2 327.18 0 0 1-90.852 37.616l8.1461 32.921a360.69 360.66 0 0 0 100.13-41.463zm140.97-309.98a327.54 327.52 0 0 1-3.677 49.156l33.546 5.091a363.35 363.32 0 0 0 0-108.49l-33.546 5.0909a327.54 327.52 0 0 1 3.677 49.156zm23.364 86.885-32.924-8.1456a327.2 327.18 0 0 1-37.619 90.958l29.077 17.535a360.69 360.66 0 0 0 41.466-100.35zm-302.31 237.58a330.43 330.4 0 0 1-98.319 0l-5.0912 33.544a363.35 363.32 0 0 0 108.5 0zm214.97-129.82a329.3 329.27 0 0 1-69.525 69.463l20.139 27.321a362.62 362.59 0 0 0 76.71-76.477zm-69.525-458.75a329.3 329.27 0 0 1 69.525 69.52l27.323-20.364a362.62 362.59 0 0 0-76.483-76.477zm-458.73 69.52a329.3 329.27 0 0 1 69.525-69.52l-20.365-27.321a362.62 362.59 0 0 0-76.483 76.477zm574.13 7.4667-29.077 17.422a327.2 327.18 0 0 1 37.619 90.845l32.924-8.1456a360.69 360.66 0 0 0-41.466-100.12zm-359.17-137.29a330.43 330.4 0 0 1 98.319 0l5.0919-33.544a363.35 363.32 0 0 0-108.5 0zm-197.54 624.83-70.09 16.348 16.349-70.085-33.037-7.7495-16.349 70.085a33.942 33.94 0 0 0 40.787 40.784l70.034-16.065zm-79.708-91.75 33.037 7.693 11.314-48.59a326.69 326.67 0 0 1-36.487-89.035l-32.924 8.1456a359.34 359.31 0 0 0 33.377 86.037zm158.4 73.536-48.594 11.313 7.6936 33.035 35.752-8.3152a359.34 359.31 0 0 0 86.043 33.374l8.1461-32.921a326.69 326.67 0 0 1-88.815-36.711zm168.01-576.35a294.17 294.14 0 0 0-248.91 450.66l-28.286 120.66 120.66-28.283a294.17 294.14 0 1 0 156.53-543.03z"/>
</svg>
