<svg viewBox="0 0 1024 1024" xmlns="http://www.w3.org/2000/svg">
	<title>Technologies icon</title>
	<desc id="desc-icon_technologies">Laptop icon with squares floating out from the screen.</desc>
	<g>
		<path d="m782.46 674.5v-105.75h-38.793v84.538c0 13.218-10.822 24.014-24.014 24.014h-480.43c-13.192 0-24.014-10.787-24.014-24.014v-288.17c0-13.253 10.822-24.041 24.014-24.041h274.86v-24.633h-310.06c-15.153 0-27.596 12.347-27.596 27.535v358.06l-68.828 82.639c0 22.829 18.49 41.354 41.285 41.354h661.08c22.795 0 41.285-18.525 41.285-41.354l-68.828-82.639v-27.535zm-247.88 137.71h-110.21c-3.8339 0-6.8924-3.0584-6.8924-6.8924s3.0584-6.8924 6.8924-6.8924h110.17c3.773 0 6.8924 3.0584 6.8924 6.8924-0.061 3.8339-3.0846 6.8924-6.8575 6.8924zm-168.68-27.535 21.017-25.226h185.05l21.017 25.226z" />
		<rect x="434.23" y="519.64" width="57.535" height="57.474" />
		<rect x="470.27" y="440.62" width="57.5" height="57.535" />
		<rect x="526.84" y="512.78" width="57.5" height="57.5" />
		<rect x="572.56" y="417.23" width="68.235" height="68.235" />
		<rect x="669.07" y="208.08" width="68.235" height="68.235" />
		<rect x="545.27" y="331.48" width="68.235" height="68.235" />
		<rect x="652.52" y="302.29" width="97.452" height="97.452" />
		<rect x="725.3" y="419.75" width="117.88" height="117.91" />
		<rect x="769.92" y="197.98" width="146.47" height="146.47" />
		<rect x="634.92" y="493.29" width="68.235" height="68.235" />
	</g>
</svg>
