<svg viewBox="0 0 1024 1024" xmlns="http://www.w3.org/2000/svg">
	<title>User profile icon</title>
	<g>
		<path d="m512 503.09c90.616 0 164.08-89.228 164.08-199.3 0-110.07-24.12-199.3-164.08-199.3-139.96 0-164.09 89.228-164.09 199.3 0 110.07 73.465 199.3 164.09 199.3z" />
		<path d="m821.55 799.34c-3.0388-191.74-28.081-246.38-219.71-280.96 0 0-26.975 34.373-89.847 34.373-62.873 0-89.852-34.373-89.852-34.373-189.54 34.207-216.1 88.033-219.6 274.73-0.28642 15.245-0.41915 16.046-0.47038 14.277 0.0116 3.3159 0.0256 9.4495 0.0256 20.145 0 0 45.622 91.971 309.89 91.971 264.26 0 309.89-91.971 309.89-91.971 0-6.8717 5e-3 -11.65 0.0116-14.901-0.0512 1.0944-0.15368-1.0269-0.34696-13.292z" />
	</g>
</svg>
