<svg viewBox="0 0 1024 1024" xmlns="http://www.w3.org/2000/svg">
	<title>Volunteership icon</title>
	<desc>Two hands on both sides of the heart symbol.</desc>
	<g>
		<path d="m680.74 210.42c-20.954-19.735-47.788-29.213-74.828-29.213-30.438 0-61.156 12.01-84.069 34.932l-9.8447 9.8447-9.8447-9.8485c-22.913-22.913-53.631-34.928-84.069-34.928-27.046 0-53.866 9.4782-74.828 29.213-46.098 43.405-46.921 115.98-2.4678 160.44l171.21 171.21 171.21-171.21c44.454-44.455 43.63-117.04-2.4696-160.44z" />
		<path d="m451.99 842.79-0.13156-169.64c0-81.927-41.965-129.96-97.549-148.05-15.513-4.695-29.412-17.03-42.339-29.963-23.486-24.46-48.594-57.913-81.118-57.497l-0.0301-0.12405c-10.61 0.13908-21.217 3.9732-30.416 13.171-21.571 21.571-12.856 54.528 5.7475 73.131l60.429 60.424c5.6384 5.6384 8.8091 13.288 8.8091 21.263 0 7.9765-3.1707 15.624-8.8091 21.264l-81.692-81.688c-14.198-14.196-23.845-33.387-26.474-52.648-3.2741-23.995 4.0822-46.371 20.718-63.006 12.459-12.459 27.745-19.492 44.418-21.27l-12.202-49.282c-0.92471-182.89-90.142-160.55-90.142-117.52l-8e-3 321.07c0 19.941 7.7247 38.736 21.761 52.919 149.39 150.77 128.6 102.2 128.6 227.45z" />
		<path d="m902.79 241.35c0-43.021-89.217-65.367-90.142 117.52l-12.202 49.282c16.673 1.778 31.959 8.8091 44.418 21.27 16.635 16.635 23.993 39.011 20.718 63.006-2.6275 19.261-12.275 38.452-26.474 52.648l-81.692 81.688c-5.6384-5.6422-8.8091-13.288-8.8091-21.264 0-7.9728 3.1707-15.624 8.8091-21.263l60.429-60.424c18.603-18.603 27.318-51.562 5.7475-73.131-9.1982-9.1982-19.808-13.032-30.416-13.171l-0.0301 0.12404c-32.524-0.41536-57.632 33.038-81.118 57.497-12.929 12.933-26.828 25.266-42.339 29.963-55.584 18.09-97.549 66.124-97.549 148.05l-0.13154 169.64h180.43c0-125.25-20.791-76.674 128.6-227.45 14.038-14.184 21.761-32.979 21.761-52.919z" />
	</g>
</svg>
